<svg xmlns="http://www.w3.org/2000/svg" viewBox="0 0 367.66 504.11"><defs><style>.cls-1{fill:#afd3dc;}.cls-2{fill:#7eb7c6;}.cls-3{fill:#4a9aaf;}.cls-4{fill:#fff;}.cls-5{fill:#5bc0d8;opacity:0.1;}.cls-5,.cls-6{isolation:isolate;}.cls-7{fill:#2f3638;}</style></defs><g id="Calque_2" data-name="Calque 2"><g id="Calque_2-2" data-name="Calque 2"><path class="cls-1" d="M341.89,36.32,291.4,7.39a36.87,36.87,0,0,0-7.09-4.06l-.74-.42,0,.06C270-2.55,252.4-.56,233.26,10.49L77.75,100.27C35,125,0,185.55,0,234.93V414.49C0,438.57,8.36,455.65,21.85,464l-.13.23,56.11,31.8,31.56-54.94L233.26,369.6C276,344.91,311,284.31,311,234.94V90.09Z"/><path class="cls-2" d="M341.89,36.32l-54-12.68C285.64,22,274.6,22.07,272.09,21l-4-1.6L260.87,18c-13.59-5.52-8.46-18.59-27.61-7.55L77.75,100.27C35,125,0,185.55,0,234.93V414.49C0,438.57,8.36,455.65,21.85,464l-.13.23,56.11,31.8,31.56-54.95L233.26,369.6C276,344.91,311,284.31,311,234.94V90.09Z"/><path class="cls-3" d="M3,209.06a123.88,123.88,0,0,0-3,25.87V414.49C0,438.57,8.36,455.65,21.85,464l-.13.24,56.11,31.8,31.56-54.95L233.26,369.6a123.34,123.34,0,0,0,21-15.53Z"/><path class="cls-4" d="M131.19,131.26c-42.75,24.68-77.75,85.29-77.75,134.66V445.49c0,49.37,35,69.57,77.75,44.88L286.7,400.59c42.76-24.68,77.75-85.28,77.75-134.67V86.37c0-49.38-35-69.58-77.75-44.89Z"/><path class="cls-5" d="M364.45,86.37c0-49.38-35-69.58-77.75-44.89L131.2,131.26c-42.76,24.68-77.76,85.29-77.76,134.66V445.49c0,49.37,35,69.57,77.76,44.88"/><path class="cls-4" d="M96.65,504.11h0c-28.2,0-46.41-23-46.41-58.62V265.92c0-50.52,35.59-112.18,79.34-137.44L285.1,38.7c12.6-7.27,24.77-11,36.14-11,28.2,0,46.42,23,46.42,58.63V265.93c0,50.53-35.6,112.18-79.35,137.44L132.79,493.15C120.19,500.42,108,504.11,96.65,504.11Zm224.6-470c-10.24,0-21.32,3.4-32.94,10.1L132.79,134c-42,24.24-76.14,83.41-76.14,131.89V445.49c0,32.2,15.32,52.21,40,52.21h0c10.24,0,21.32-3.4,32.93-10.1L285.1,397.82c42-24.24,76.14-83.41,76.14-131.89V86.37C361.25,54.16,345.92,34.15,321.25,34.15Z"/><g class="cls-6"><path class="cls-7" d="M212.56,150c-58.33,33.69-105.46,115.53-105.28,182.8.16,53.83,30.55,82,72.57,73.91a12.73,12.73,0,0,0,1.82-.85,10.88,10.88,0,0,0,5.38-9.16c0-2.91-.11-10.53-.2-20.67a77.89,77.89,0,0,1-10.65,7.57c-20.29,11.72-25-3.33-25-3.33-4.85-11.32-11.78-11.05-11.78-11.05-9.2-1.95-.13-7.35.67-7.81l.05,0c10.58-5.25,16.19,3.23,16.19,3.23,5.31,7.34,12.4,6.15,18.69,2.53A54.68,54.68,0,0,0,187.11,357a48.28,48.28,0,0,1,6.67-20.17c-23.47,10.48-48.16,14.27-48.29-32.42,0-13.32,4.06-26.59,10.78-39-1.08-2.48-4.74-12.74.95-32.85a13.61,13.61,0,0,1,2.35-1.64c3.83-2.22,12.45-5.55,26.73-2.63a161.86,161.86,0,0,1,26.42-19.36,108.67,108.67,0,0,1,26.45-11.17c14.22-19.36,22.82-26,26.63-28.18a9.62,9.62,0,0,1,2.36-1.07c5.81,13.47,2.22,27.92,1.13,31.66,6.79,4.59,10.93,13.1,11,26.42.14,46.8-24.55,71.37-48.06,87.95,3.81,1.56,7.22,7.05,7.25,18.41,0,16.32-.07,29.51-.06,33.54,0,2.83,1.46,5.23,5.39,3a15.12,15.12,0,0,0,1.91-1.32c41.86-40.35,72-103.44,71.81-157.26-.18-67.29-47.62-94.52-105.93-60.87"/></g><path d="M313,175.5c-14.1-40.36-53.77-52.45-100.43-25.52-58.33,33.69-105.46,115.53-105.28,182.8.16,53.67,30.38,81.83,72.2,74L187,393.67c0-3.85-.11-10-.18-17.66a77.89,77.89,0,0,1-10.65,7.57c-20.29,11.72-25-3.33-25-3.33-4.85-11.32-11.78-11.05-11.78-11.05-9.2-1.95-.13-7.34.67-7.81l.05,0c10.58-5.25,16.19,3.23,16.19,3.23,5.31,7.34,12.4,6.15,18.69,2.53A54.68,54.68,0,0,0,187.11,357a48.18,48.18,0,0,1,6.67-20.16c-23.47,10.47-48.16,14.26-48.29-32.43,0-13.32,4.06-26.58,10.78-39-1.08-2.49-4.74-12.75.95-32.86a13.61,13.61,0,0,1,2.35-1.64c3.83-2.21,12.45-5.55,26.73-2.63a161.86,161.86,0,0,1,26.42-19.36,108.67,108.67,0,0,1,26.45-11.17c14.22-19.36,22.82-26,26.63-28.17a10,10,0,0,1,2.36-1.08c5.81,13.47,2.22,27.92,1.13,31.66,6.79,4.59,10.93,13.1,11,26.42,0,2.05-.09,4-.18,6Z"/><path d="M232.19,314.51c.14.06.27.16.41.23l.52-.9Z"/></g></g></svg>