<svg xmlns="http://www.w3.org/2000/svg" viewBox="0 0 367.66 504.12"><defs><style>.cls-1{fill:#ec7c30;}.cls-2{fill:#eb7323;}.cls-3{fill:#ea6f1c;}.cls-4{fill:#9039cc;}.cls-5{isolation:isolate;}.cls-6{fill:#f9f9f9;}.cls-7{fill:#eda71d;}.cls-8{fill:#ed853e;}.cls-9{fill:#bc88e0;}.cls-10{fill:#ab69d8;}.cls-11{fill:#34f8e9;}.cls-12{fill:#01f6e4;}.cls-13{fill:#52f9ed;}.cls-14{fill:#41f8eb;}.cls-15{fill:#1ff7e7;}.cls-16{fill:#27f7e8;}.cls-17{fill:#5cf9ee;}.cls-18{fill:#50f9ec;}.cls-19{fill:#3bf8ea;}.cls-20{fill:#13f7e6;}.cls-21{fill:#57f9ed;}.cls-22{fill:#48f9ec;}.cls-23{fill:#2ff8e9;}.cls-24{fill:#f5fffe;}</style></defs><g id="Calque_2" data-name="Calque 2"><g id="Calque_2-2" data-name="Calque 2"><path class="cls-1" d="M341.89,36.32,291.4,7.4a37.45,37.45,0,0,0-7.09-4.07l-.74-.42,0,.06C270-2.55,252.4-.56,233.26,10.49L77.75,100.27C35,125,0,185.56,0,234.94V414.49C0,438.57,8.36,455.65,21.85,464l-.13.23,56.11,31.8,31.56-54.94,123.87-71.51C276,344.92,311,284.32,311,234.94V90.09Z"/><path class="cls-2" d="M341.89,36.32l-54-12.67C285.64,22,274.6,22.08,272.08,21l-4-1.61L260.86,18c-13.58-5.52-8.45-18.59-27.6-7.54L77.75,100.27C35,125,0,185.56,0,234.94V414.49C0,438.57,8.36,455.65,21.85,464l-.13.23,56.11,31.8,31.56-54.94,123.87-71.51C276,344.92,311,284.32,311,234.94V90.09Z"/><path class="cls-3" d="M3,209.07a123.73,123.73,0,0,0-3,25.87V414.49C0,438.57,8.36,455.65,21.85,464l-.13.23,56.11,31.8,31.56-54.94,123.87-71.51a124,124,0,0,0,21-15.54Z"/><path class="cls-4" d="M131.19,131.26C88.43,156,53.44,216.55,53.44,265.93V445.49c0,49.38,35,69.57,77.75,44.89L286.7,400.6c42.76-24.69,77.75-85.29,77.75-134.67V86.37c0-49.38-35-69.57-77.75-44.89Z"/><path class="cls-4" d="M96.65,504.12h0c-28.2,0-46.41-23-46.41-58.63V265.93c0-50.53,35.59-112.19,79.34-137.44L285.1,38.71c12.6-7.28,24.77-11,36.14-11,28.2,0,46.42,23,46.42,58.63V265.93c0,50.53-35.6,112.19-79.35,137.44L132.79,493.15C120.19,500.43,108,504.12,96.65,504.12Zm224.6-470c-10.24,0-21.33,3.4-32.94,10.1L132.79,134c-42,24.25-76.14,83.42-76.14,131.9V445.49c0,32.2,15.32,52.22,40,52.22h0c10.24,0,21.32-3.41,32.93-10.11L285.1,397.83c42-24.24,76.14-83.42,76.14-131.9V86.37C361.25,54.17,345.92,34.16,321.25,34.16Z"/><g class="cls-5"><path class="cls-6" d="M320.69,173.17l-35.27,20.37c5.74,4.52,6.86,17.92,6.89,26.86.15,54.41-38.31,120.91-85.72,148.28s-86.07,5.41-86.23-49c0-8.94,1.48-24.05,6.1-34.36l-35.33,20.4.43,152.19c0,5.66,4,7.92,8.84,5.11L312.32,340.66c4.87-2.82,8.81-9.64,8.78-15.3l-.41-152.19"/><path class="cls-7" d="M272,111.1a19.14,19.14,0,0,0-4.5,11.46l.08,30.46c0,3.94,2,6.22,4.84,6.25l-.14-48-.28-.18"/><path class="cls-8" d="M272.27,111.29l.14,48a7.82,7.82,0,0,0,4-1.2l26.51-15.31a18,18,0,0,0,6.33-6.74l-37-24.73"/><path class="cls-3" d="M302.79,92l-26.51,15.31A16.07,16.07,0,0,0,272,111.1l.28.19,37,24.73a17.78,17.78,0,0,0,2.47-8.48l-.1-30.46c0-5.6-4-7.85-8.84-5"/><path class="cls-9" d="M168,247.84c-9.92,17-16,36.25-16,53.55.1,34.49,24.46,48.29,54.46,31,15.09-8.71,28.69-23.59,38.52-40.61l-3.37-1.91c-9.06,15.7-21.59,29.41-35.45,37.41-27.77,16-50.3,3.14-50.39-28.77,0-15.92,5.54-33.59,14.6-49.29L168,247.84"/><path class="cls-10" d="M206.13,207.81c-14.89,8.6-28.34,23.26-38.12,40l2.38,1.36c9.05-15.68,21.59-29.39,35.47-37.41,27.71-16,50.29-3.13,50.38,28.72,0,15.95-5.54,33.64-14.6,49.34l3.36,1.91c9.76-16.91,15.76-35.93,15.71-53.11-.1-34.35-24.52-48.2-54.58-30.84"/><path class="cls-11" d="M205.85,211.79c-13.87,8-26.41,21.73-35.46,37.41s-14.64,33.37-14.59,49.29c.09,31.91,22.62,44.81,50.39,28.78,13.86-8,26.39-21.72,35.45-37.42s14.64-33.39,14.6-49.34c.08,31.9-22.34,70.75-50.05,86.76l-.07-20.67c-12.08,7-22.63,5.39-28.17-2.75l-.08-.1-.27-.4-.16-.27-.17-.27-.19-.34a2.55,2.55,0,0,0-.14-.24c-.08-.15-.15-.28-.22-.44a.55.55,0,0,1-.1-.17c-.07-.15-.14-.3-.22-.45l-.1-.2-.21-.48c0-.06,0-.11-.07-.16s-.14-.35-.21-.53l-.08-.17-.2-.54a.76.76,0,0,0-.06-.16c-.06-.17-.11-.35-.18-.52a2.25,2.25,0,0,0-.08-.24c-.05-.17-.09-.34-.15-.51s-.05-.16-.07-.24-.09-.33-.13-.5a2.58,2.58,0,0,1-.08-.26c-.05-.18-.08-.35-.13-.52l-.06-.26c0-.17-.07-.33-.1-.5s0-.21-.07-.32l-.09-.5c0-.1,0-.2-.06-.3s-.05-.35-.08-.52a1.76,1.76,0,0,1,0-.31,4.68,4.68,0,0,1-.08-.54c0-.1,0-.21,0-.31s0-.38-.05-.56,0-.2,0-.29,0-.44-.05-.66c0-.07,0-.13,0-.21,0-.26,0-.51,0-.76a.62.62,0,0,1,0-.13c0-.6-.05-1.22-.05-1.83v0h0c0-.14,0-.26,0-.4v-.49l0-.85v-.05c.42-11.44,5.17-24.07,12.36-34.68.08-.11.15-.23.23-.35l.34-.48c.14-.21.29-.41.44-.62,0-.06.09-.12.13-.19a71.13,71.13,0,0,1,9-10.34s0,0,0,0L197,239l.15-.12.6-.55c.06,0,.12-.1.18-.15s.38-.32.56-.49a1.92,1.92,0,0,0,.22-.18l.56-.45.24-.2.5-.41.29-.23.5-.38c.09-.08.19-.14.29-.23l.49-.35c.09-.08.2-.14.29-.23s.36-.24.54-.37l.26-.17c.18-.13.38-.28.57-.4s.14-.1.22-.14.42-.29.65-.43l.15-.09.8-.5h0l.81-.49h0l0-20.65"/><path class="cls-12" d="M205.85,211.79l.07,20.66a3,3,0,0,0,.3-.18l.47-.25c17.19-9.47,31.1-1.55,31.56,18,0,.18,0,.35,0,.53v.35h0c0,.32,0,.63,0,1h0c0,.31,0,.62,0,.94,0,.05,0,.11,0,.18,0,.25,0,.51,0,.77a2.28,2.28,0,0,0,0,.26c0,.22,0,.44,0,.68s0,.22,0,.34,0,.41,0,.62,0,.25-.05.4,0,.37-.05.55,0,.28-.07.42a4.86,4.86,0,0,1-.07.55c0,.15,0,.3-.06.44s-.05.36-.08.54,0,.27-.07.42-.06.39-.1.58-.05.27-.08.41-.06.37-.1.57,0,.28-.08.42-.08.38-.11.57-.07.28-.09.43-.09.4-.13.58l-.09.37c0,.23-.09.45-.16.68s0,.21-.08.32-.11.46-.17.69a1.57,1.57,0,0,0-.08.29c-.07.25-.13.49-.21.73,0,.09-.05.19-.08.28l-.21.74-.09.27c-.06.23-.14.46-.21.69l-.12.37c-.06.19-.12.39-.19.58s-.09.3-.15.46-.11.34-.18.5-.13.39-.2.58-.08.23-.11.34-.2.52-.29.78a.84.84,0,0,0-.06.14c-5.48,14.52-16,28.28-28.09,35.26l.06,20.66c27.72-16,50.14-54.86,50.06-86.76s-22.66-44.69-50.38-28.7"/><path class="cls-13" d="M178,303.84c5.54,8.15,16.09,9.74,28.17,2.76v-.07s0,0,0,0c-8.25,4.76-16.5,5.89-22.8,2.29a15.88,15.88,0,0,1-5.35-5m-.35-.5.27.41-.27-.41m-.33-.54.17.28-.17-.28m-.33-.58c.05.07.09.16.14.24a2.55,2.55,0,0,0-.14-.24m-.32-.61.1.18-.1-.18m-.32-.65.1.2-.1-.2m-.27-.64a1.66,1.66,0,0,0,.06.16.64.64,0,0,1-.06-.16m-.29-.69c0,.06,0,.11.07.17s-.05-.11-.07-.17m-.26-.71c0,.06,0,.11.05.17s0-.11-.05-.17m-.26-.75c0,.08.06.16.08.23s-.05-.15-.08-.23m-.22-.75c0,.09.05.16.07.24a2.17,2.17,0,0,0-.07-.24m-.21-.76.08.26-.08-.26m-.19-.78a2,2,0,0,1,.06.26,2,2,0,0,0-.06-.26m-.17-.82c0,.11,0,.22.07.32,0-.1,0-.21-.07-.32m-.15-.8c0,.1,0,.2.06.3,0-.1,0-.2-.06-.3m-.12-.83c0,.1,0,.2.05.3,0-.1,0-.2-.05-.3m-.12-.85c0,.1,0,.21.05.3,0-.09,0-.2-.05-.3m-.09-.85c0,.09,0,.19,0,.28,0-.09,0-.19,0-.28m-.06-.87c0,.08,0,.14,0,.22,0-.08,0-.14,0-.22m-.06-.89a.45.45,0,0,0,0,.12.45.45,0,0,1,0-.12m-.05-1.86h0"/><path class="cls-14" d="M234.22,271.34a76.78,76.78,0,0,1-5.34,11.18c-6.27,10.87-14.51,19.25-22.76,24v.06c12.09-7,22.61-20.74,28.1-35.26m.34-.92c-.09.26-.2.52-.29.78.09-.26.19-.52.29-.78m.32-.92c-.07.21-.13.4-.2.58.07-.19.13-.38.2-.58m.33-1c-.06.16-.1.3-.15.46.05-.16.09-.3.15-.46m.31-1c0,.12-.08.24-.13.36a3.82,3.82,0,0,0,.13-.36m.3-1a2.31,2.31,0,0,0-.1.28c0-.09.06-.19.1-.28m.28-1c0,.1,0,.19-.08.29a1.57,1.57,0,0,0,.08-.29m.29-1a1.57,1.57,0,0,0-.08.29,1.38,1.38,0,0,1,.08-.29m.25-1c0,.1,0,.21-.08.32,0-.11.05-.22.08-.32m.25-1.05-.09.37c0-.11.06-.24.09-.37m.22-1a3.67,3.67,0,0,0-.09.43l.09-.43m.2-1c0,.15-.06.28-.09.42,0-.14.06-.27.09-.42m.17-1c0,.14,0,.28-.07.41,0-.13.05-.27.07-.41m.18-1c0,.15,0,.28-.08.42,0-.14,0-.27.08-.42m.13-1c0,.15,0,.3-.06.44,0-.13.05-.28.06-.44m.13-1c0,.14,0,.28-.06.42a2.65,2.65,0,0,0,.06-.42m.11-.95c0,.13,0,.26-.05.4,0-.14,0-.27.05-.4m.08-1c0,.11,0,.23,0,.34,0-.11,0-.23,0-.34m.07-.94a2.28,2.28,0,0,0,0,.27,2.28,2.28,0,0,1,0-.27m0-1a.9.9,0,0,0,0,.18c0-.06,0-.13,0-.18m0-1.91h0"/><path class="cls-14" d="M173.78,287.72v0m0-1.35c0,.28,0,.57,0,.85,0-.28,0-.56,0-.85m12.35-34.72c-7.19,10.6-11.93,23.23-12.35,34.68.34-9.1,3.45-19.67,9.34-29.86,1-1.68,2-3.29,3-4.82m.57-.83-.34.48c.12-.15.22-.32.34-.48m.58-.82-.13.19a1.07,1.07,0,0,1,.13-.19m9-10.37,0,0,0,0m.82-.74L197,239l.14-.12m.78-.7c-.06.05-.12.11-.18.15s.12-.1.18-.15m.78-.66a1.84,1.84,0,0,1-.22.17c.08,0,.15-.12.22-.17m.8-.66-.24.2a2.31,2.31,0,0,1,.24-.2m.8-.63-.29.22.29-.22m.79-.61-.29.23.29-.23m.77-.58a3.25,3.25,0,0,1-.29.23,3.25,3.25,0,0,0,.29-.23m.8-.54-.26.17.26-.17m.79-.54c-.08,0-.14.09-.22.14.08-.05.14-.1.22-.14m.8-.53a.46.46,0,0,1-.15.09.75.75,0,0,0,.15-.09m.8-.5h0m.83-.49h0"/><path class="cls-15" d="M238.25,250.53v.35h0v-.35M206.69,232c8-4.39,15.93-5.35,22-1.87S238,240.94,238.25,250c-.46-19.52-14.37-27.45-31.56-18m-.78.43a3.14,3.14,0,0,0,.31-.18,2.29,2.29,0,0,1-.31.18"/><path class="cls-16" d="M234.27,271.2a.78.78,0,0,0-.05.14.78.78,0,0,1,.05-.14m.41-1.12c0,.11-.09.23-.12.34,0-.11.08-.23.12-.34m.38-1.08c-.07.17-.12.34-.18.5.06-.16.11-.33.18-.5m.33-1.05c0,.19-.12.4-.18.59.07-.19.13-.4.18-.59m.33-1.05c-.06.23-.13.46-.2.69.07-.23.14-.46.2-.69m.3-1c-.07.25-.13.49-.21.74.08-.25.14-.5.21-.74m.29-1c-.07.25-.13.49-.21.73.08-.24.14-.49.21-.73m.25-1c-.06.23-.11.46-.17.68.05-.22.11-.45.17-.68m.24-1c-.05.22-.1.45-.16.68.06-.23.11-.46.16-.68M237,262c0,.2-.09.39-.13.58,0-.19.09-.38.13-.58m.2-1c0,.19-.07.38-.11.57,0-.19.08-.38.11-.57m.19-1a5.48,5.48,0,0,1-.1.56,5.48,5.48,0,0,0,.1-.56m.17-1c0,.2-.06.39-.09.58,0-.19.06-.38.09-.58m.15-1a4.85,4.85,0,0,1-.08.55,4.85,4.85,0,0,0,.08-.55m.13-1a5,5,0,0,1-.07.56,5,5,0,0,0,.07-.56m.12-1c0,.18,0,.37-.06.55,0-.18,0-.37.06-.55m.1-1c0,.21,0,.42-.06.62a6.2,6.2,0,0,0,.06-.62m.08-1c0,.21,0,.45,0,.67,0-.23,0-.46,0-.67m.05-1c0,.25,0,.51,0,.76,0-.25,0-.5,0-.76m0-1.13c0,.32,0,.63,0,.95,0-.32,0-.63,0-.95m0-1v0m0-.88v0"/><path class="cls-17" d="M206,269.49,183.3,308.84a15.88,15.88,0,0,1-5.35-5,15.88,15.88,0,0,0,5.35,5c6.3,3.61,14.55,2.47,22.8-2.29,0,0,0,0,0,0l-.09-37"/><path class="cls-18" d="M224,283.85c-2.35,1.36-4.24.27-4.26-2.42a9.31,9.31,0,0,1,4.23-7.31c2.29-1.33,4.24-.27,4.25,2.42a9.37,9.37,0,0,1-4.22,7.31m-9-9.71c-.86.5-1.6.13-1.6-.92a3.49,3.49,0,0,1,1.59-2.7c.86-.49,1.56-.1,1.56.89a3.41,3.41,0,0,1-1.55,2.73m23.27-23.26L206,269.49l.1,37c8.25-4.76,16.49-13.14,22.76-24a77.19,77.19,0,0,0,5.33-11.18.84.84,0,0,1,.06-.14c.09-.26.19-.52.29-.78s.08-.23.11-.34.13-.38.2-.58.12-.33.18-.5l.15-.46c.07-.19.13-.4.19-.58s.08-.24.12-.37.15-.46.21-.69l.09-.28.21-.73a2.45,2.45,0,0,0,.08-.29c.08-.23.14-.47.21-.72,0-.09.05-.2.08-.3s.11-.45.17-.68.05-.22.08-.32.11-.46.16-.68a2,2,0,0,0,.09-.37c0-.19.09-.39.14-.58s.05-.29.08-.43.08-.38.11-.57.07-.28.09-.42.07-.38.09-.57a3.28,3.28,0,0,0,.08-.41c0-.2.07-.39.1-.58s0-.28.07-.42.06-.36.08-.55.05-.28.06-.43a4.86,4.86,0,0,0,.07-.55c0-.14,0-.28.07-.42s0-.37,0-.56,0-.26.05-.39,0-.42.05-.62,0-.23,0-.34,0-.46,0-.68a2.65,2.65,0,0,1,0-.27c0-.25,0-.51,0-.76a.9.9,0,0,1,0-.18c0-.32,0-.63,0-1h0c0-.31,0-.63,0-.95l0,0"/><path class="cls-19" d="M228.73,230.15,206,269.48l32.23-18.6v-.35c0-.18,0-.36,0-.53-.21-9.06-3.39-16.36-9.51-19.85"/><path class="cls-19" d="M177.87,303.75a.34.34,0,0,0,.08.09.34.34,0,0,1-.08-.09m-.43-.67.16.26-.16-.26m-.36-.62.19.34-.19-.34m-.36-.67c.07.15.14.29.22.43-.08-.14-.15-.29-.22-.43m-.32-.63.22.45c-.08-.14-.14-.29-.22-.45m-.32-.68c.08.16.15.32.22.48-.07-.16-.14-.32-.22-.48m-.27-.68c.07.17.14.35.22.52-.08-.17-.15-.35-.22-.52m-.28-.71.21.54-.21-.54m-.23-.69c.06.17.12.36.18.52l-.18-.52m-.23-.74.15.51-.15-.51m-.2-.74c0,.17.08.34.13.5-.05-.16-.09-.33-.13-.5m-.21-.78c.05.17.09.34.13.52,0-.18-.08-.35-.13-.52m-.16-.76c0,.17.07.33.1.5,0-.17-.07-.33-.1-.5m-.16-.82.09.5-.09-.5m-.13-.83c0,.18,0,.35.08.53a4.85,4.85,0,0,1-.08-.53m-.13-.85c0,.19,0,.37.08.55,0-.18,0-.36-.08-.55M174,292c0,.18,0,.37.06.56A5,5,0,0,0,174,292m-.08-.95c0,.22,0,.43.06.66,0-.22,0-.44-.06-.66m-.06-1c0,.26,0,.51,0,.77,0-.26,0-.51,0-.77m-.06-2v0c0,.62,0,1.23.05,1.84,0-.6-.05-1.22-.05-1.86m0-.89v0m0-.89v0m12.58-35c-.08.12-.16.23-.23.35l.23-.35m.79-1.11c-.16.21-.3.41-.45.63q.21-.31.45-.63m9.13-10.52a69.34,69.34,0,0,0-9,10.33,69.12,69.12,0,0,1,9-10.33M197,239l-.68.62L197,239m.74-.66c-.2.17-.4.36-.6.55l.6-.55m.75-.65-.57.49.57-.49m.77-.63-.56.45.56-.45m.74-.61-.5.41.5-.41m.79-.6-.5.38.5-.38m.78-.58-.48.35c.15-.12.32-.23.48-.35m.83-.6c-.17.12-.35.26-.54.37.19-.11.37-.25.54-.37m.83-.57c-.19.12-.38.26-.57.4l.57-.4m.87-.57c-.22.14-.44.28-.65.43.21-.15.43-.29.65-.43m1-.59-.79.49.79-.49m.81-.49-.8.48.82-.48h0"/><path class="cls-20" d="M206.23,232.28l.46-.25-.46.25"/><path class="cls-21" d="M206,269.49l-32.25,18.62h0c0,.63,0,1.25.05,1.85a.53.53,0,0,0,0,.13c0,.25,0,.51,0,.76,0,.08,0,.14,0,.22s0,.43.06.65l0,.29c0,.18,0,.38,0,.56a2,2,0,0,1,.05.31c0,.18,0,.37.08.54a1.54,1.54,0,0,0,.05.31,4.67,4.67,0,0,0,.08.52c0,.1,0,.2,0,.3l.09.5c0,.11.05.22.07.32s.07.33.1.5a1.1,1.1,0,0,1,.06.26c.05.17.09.35.13.52s0,.18.08.26.09.34.13.5.05.16.07.24.1.34.16.52,0,.15.08.23.11.34.17.52a.76.76,0,0,1,.06.16l.21.55c0,.06.05.11.07.17l.22.52.06.16c.08.16.15.32.22.48a1.13,1.13,0,0,1,.09.2c.08.15.15.31.23.45a.87.87,0,0,0,.09.17l.22.44a2.55,2.55,0,0,1,.14.24l.19.34a2,2,0,0,1,.17.27c.06.09.11.18.16.27s.18.27.27.4l.08.1a16.27,16.27,0,0,0,5.35,5L206,269.49"/><path class="cls-22" d="M193.08,274c-5.85,3.36-10.56.68-10.59-6s4.67-14.82,10.52-18.2,10.49-.58,10.51,6.07-4.67,14.75-10.44,18.1m12.83-41.49-.83.48h0c-.26.16-.54.32-.8.49a.75.75,0,0,1-.15.09l-.65.43a1.43,1.43,0,0,0-.22.15c-.19.12-.39.26-.57.39a2.4,2.4,0,0,0-.26.18l-.54.37c-.09.08-.2.15-.29.22s-.33.24-.49.36l-.29.23a6,6,0,0,0-.5.38l-.29.23c-.16.13-.34.26-.5.4s-.17.13-.24.2l-.56.46-.21.17-.57.5-.18.15-.6.55L197,239l-.67.61a.08.08,0,0,1,0,0,70.28,70.28,0,0,0-9,10.33c0,.07-.09.12-.13.2s-.29.41-.44.62-.22.33-.34.48l-.23.35c-1,1.54-2.06,3.15-3,4.82-5.89,10.2-9,20.76-9.35,29.86v.05l0,.84v.5c0,.13,0,.25,0,.39L206,269.49l-.1-37s0,0,0,0"/><path class="cls-23" d="M205.91,232.45l.11,37,22.71-39.33c-6.12-3.49-14-2.52-22,1.87l-.46.25a2.29,2.29,0,0,1-.31.18"/><path class="cls-24" d="M193,249.78c-5.85,3.38-10.53,11.56-10.52,18.2s4.74,9.33,10.59,6,10.46-11.46,10.44-18.1-4.73-9.4-10.51-6.07"/><path class="cls-24" d="M215,270.52a3.47,3.47,0,0,0-1.59,2.7c0,1.06.74,1.42,1.6.92a3.41,3.41,0,0,0,1.55-2.73c0-1-.7-1.38-1.56-.89"/><path class="cls-24" d="M223.93,274.12a9.29,9.29,0,0,0-4.23,7.31c0,2.7,1.91,3.78,4.26,2.42a9.37,9.37,0,0,0,4.22-7.31c0-2.7-2-3.75-4.25-2.42"/><path class="cls-4" d="M206.59,368.68c47.41-27.37,85.87-93.87,85.72-148.28,0-9-1.15-22.34-6.89-26.86l35.27-20.37.42,152.19c0,5.66-3.92,12.48-8.79,15.3L100.41,463c-4.87,2.81-8.83.55-8.85-5.11l-.43-152.19,35.33-20.4c-4.61,10.31-6.12,25.41-6.1,34.36.17,54.42,38.87,76.35,86.23,49M168,247.84c9.77-16.78,23.23-31.43,38.12-40,30.06-17.36,54.48-3.51,54.58,30.84,0,17.18-6,36.2-15.71,53.11s-23.43,31.9-38.52,40.61c-30,17.31-54.36,3.51-54.46-31,0-17.3,6.07-36.51,16-53.55M272,111.1a15.89,15.89,0,0,1,4.29-3.76L302.79,92c4.87-2.8,8.82-.55,8.84,5l.09,30.46a17.8,17.8,0,0,1-2.46,8.49,18.17,18.17,0,0,1-6.33,6.74l-26.51,15.31a8,8,0,0,1-4,1.2c-2.86,0-4.83-2.31-4.84-6.25l-.08-30.46A19.14,19.14,0,0,1,272,111.1m41.28-65.78L97.86,169.69c-18.55,10.71-33.56,36.64-33.51,58l.71,247.65c.06,21.32,15.17,29.81,33.72,19.09L314.19,370c18.55-10.72,33.5-36.55,33.44-57.87l-.7-247.65c-.06-21.32-15.11-29.9-33.66-19.19"/></g></g></g></svg>